<svg width="779" height="175" viewBox="0 0 779 175" fill="none" xmlns="http://www.w3.org/2000/svg">
<g filter="url(#filter0_d_3_88)">
<path d="M148.015 44.5213L87.1746 17.4813C86.3095 17.0969 85.3733 16.8983 84.4266 16.8983C83.48 16.8983 82.5438 17.0969 81.6787 17.4813L20.8387 44.5213C20.7035 44.5822 20.6089 44.6836 20.4737 44.7579C20.2844 44.8526 20.0816 44.9134 19.9058 45.0283C19.7571 45.1297 19.6422 45.2582 19.5002 45.3663C19.0061 45.7336 18.5727 46.1761 18.2158 46.6778C18.0806 46.8671 17.9387 47.0361 17.817 47.2253C17.6158 47.5826 17.444 47.9556 17.3032 48.3407C17.2424 48.5233 17.1477 48.6923 17.0937 48.8748C16.9239 49.4685 16.8352 50.0825 16.83 50.7V118.3C16.83 120.977 18.3983 123.39 20.8455 124.479L81.6855 151.519C82.5643 151.911 83.4971 152.1 84.43 152.1C85.3712 152.076 86.297 151.855 87.1475 151.451L87.1746 151.519L148.015 124.479C149.21 123.948 150.226 123.082 150.939 121.985C151.652 120.888 152.031 119.608 152.03 118.3V50.7C152.031 49.3918 151.652 48.1116 150.939 47.0147C150.226 45.9179 149.21 45.0517 148.015 44.5213ZM84.43 31.0622L128.627 50.7L84.43 70.3378L75.5879 66.4102L40.2399 50.7L84.43 31.0622ZM30.35 113.913V61.1036L77.67 82.134V134.936L30.35 113.913ZM91.19 134.936V82.134L138.51 61.1036V113.913L91.19 134.936Z" fill="#909096" fill-opacity="0.25"/>
<path d="M243.29 60.84L266.95 84.5L243.29 108.16M212.87 84.5H266.95H212.87Z" stroke="#909096" stroke-opacity="0.25" stroke-width="13.52" stroke-linecap="round" stroke-linejoin="round"/>
<path d="M386.08 144.342C419.13 144.342 445.922 117.55 445.922 84.5C445.922 51.4504 419.13 24.6583 386.08 24.6583C353.03 24.6583 326.238 51.4504 326.238 84.5C326.238 117.55 353.03 144.342 386.08 144.342Z" stroke="#909096" stroke-opacity="0.25" stroke-width="11.9683"/>
<path d="M535.63 60.84L559.29 84.5L535.63 108.16M505.21 84.5H559.29H505.21Z" stroke="#909096" stroke-opacity="0.25" stroke-width="13.52" stroke-linecap="round" stroke-linejoin="round"/>
<path d="M680.753 106.521C680.753 108.849 680.123 110.925 678.991 112.813C676.852 109.1 672.825 106.521 668.169 106.521C663.513 106.521 659.487 109.1 657.348 112.813C656.278 110.925 655.586 108.849 655.586 106.521C655.586 99.6 661.248 93.9375 668.169 93.9375C675.09 93.9375 680.753 99.6 680.753 106.521ZM759.398 103.375V122.25C759.398 125.71 756.567 128.542 753.107 128.542H746.815V134.833C746.815 141.817 741.215 147.417 734.232 147.417H646.148C642.811 147.417 639.61 146.091 637.251 143.731C634.891 141.371 633.565 138.171 633.565 134.833V128.542H627.273C623.813 128.542 620.982 125.71 620.982 122.25V103.375C620.982 99.9146 623.813 97.0833 627.273 97.0833H633.565C633.565 72.7346 653.258 53.0417 677.607 53.0417H683.898V45.0513C680.123 42.9121 677.607 38.8225 677.607 34.1667C677.607 27.2458 683.269 21.5833 690.19 21.5833C697.111 21.5833 702.773 27.2458 702.773 34.1667C702.773 38.8225 700.257 42.9121 696.482 45.0513V53.0417H702.773C727.122 53.0417 746.815 72.7346 746.815 97.0833H753.107C756.567 97.0833 759.398 99.9146 759.398 103.375ZM746.815 109.667H734.232V97.0833C734.232 79.7183 720.138 65.625 702.773 65.625H677.607C660.242 65.625 646.148 79.7183 646.148 97.0833V109.667H633.565V115.958H646.148V134.833H734.232V115.958H746.815V109.667ZM712.211 93.9375C705.29 93.9375 699.628 99.6 699.628 106.521C699.628 108.849 700.32 110.925 701.389 112.813C703.528 109.1 707.555 106.521 712.211 106.521C716.867 106.521 720.893 109.1 723.033 112.813C724.165 110.925 724.794 108.849 724.794 106.521C724.794 103.184 723.468 99.9829 721.109 97.6231C718.749 95.2633 715.548 93.9375 712.211 93.9375V93.9375Z" fill="#909096" fill-opacity="0.25"/>
</g>
<defs>
<filter id="filter0_d_3_88" x="0.309998" y="0" width="778.3" height="175" filterUnits="userSpaceOnUse" color-interpolation-filters="sRGB">
<feFlood flood-opacity="0" result="BackgroundImageFix"/>
<feColorMatrix in="SourceAlpha" type="matrix" values="0 0 0 0 0 0 0 0 0 0 0 0 0 0 0 0 0 0 127 0" result="hardAlpha"/>
<feOffset dy="3"/>
<feGaussianBlur stdDeviation="1.5"/>
<feComposite in2="hardAlpha" operator="out"/>
<feColorMatrix type="matrix" values="0 0 0 0 0 0 0 0 0 0 0 0 0 0 0 0 0 0 0.25 0"/>
<feBlend mode="normal" in2="BackgroundImageFix" result="effect1_dropShadow_3_88"/>
<feBlend mode="normal" in="SourceGraphic" in2="effect1_dropShadow_3_88" result="shape"/>
</filter>
</defs>
</svg>
