<svg width="65" height="65" viewBox="0 0 65 65" fill="none" xmlns="http://www.w3.org/2000/svg">
<path d="M28.1877 40.8393C28.1877 41.7208 27.9495 42.5071 27.5206 43.2219C26.7105 41.8161 25.1856 40.8393 23.4224 40.8393C21.6593 40.8393 20.1344 41.8161 19.3243 43.2219C18.9192 42.5071 18.6571 41.7208 18.6571 40.8393C18.6571 38.2184 20.8015 36.074 23.4224 36.074C26.0433 36.074 28.1877 38.2184 28.1877 40.8393ZM57.9708 39.6479V46.7959C57.9708 48.1063 56.8986 49.1785 55.5881 49.1785H53.2055V51.5612C53.2055 54.2059 51.0849 56.3264 48.4402 56.3264H15.0832C13.8194 56.3264 12.6073 55.8244 11.7136 54.9307C10.82 54.0371 10.3179 52.825 10.3179 51.5612V49.1785H7.93526C6.6248 49.1785 5.55261 48.1063 5.55261 46.7959V39.6479C5.55261 38.3375 6.6248 37.2653 7.93526 37.2653H10.3179C10.3179 28.0445 17.7756 20.5868 26.9964 20.5868H29.379V17.5608C27.9495 16.7507 26.9964 15.202 26.9964 13.4389C26.9964 10.818 29.1408 8.67358 31.7617 8.67358C34.3826 8.67358 36.527 10.818 36.527 13.4389C36.527 15.202 35.5739 16.7507 34.1443 17.5608V20.5868H36.527C45.7478 20.5868 53.2055 28.0445 53.2055 37.2653H55.5881C56.8986 37.2653 57.9708 38.3375 57.9708 39.6479ZM53.2055 42.0306H48.4402V37.2653C48.4402 30.6892 43.1031 25.3521 36.527 25.3521H26.9964C20.4203 25.3521 15.0832 30.6892 15.0832 37.2653V42.0306H10.3179V44.4132H15.0832V51.5612H48.4402V44.4132H53.2055V42.0306ZM40.1009 36.074C37.48 36.074 35.3356 38.2184 35.3356 40.8393C35.3356 41.7208 35.5977 42.5071 36.0028 43.2219C36.8129 41.8161 38.3378 40.8393 40.1009 40.8393C41.8641 40.8393 43.389 41.8161 44.1991 43.2219C44.628 42.5071 44.8662 41.7208 44.8662 40.8393C44.8662 39.5754 44.3642 38.3634 43.4705 37.4697C42.5768 36.576 41.3648 36.074 40.1009 36.074V36.074Z" fill="#08FDD8"/>
</svg>
