<svg width="170" height="169" viewBox="0 0 170 169" fill="none" xmlns="http://www.w3.org/2000/svg">
<g filter="url(#filter0_d_3_97)">
<path d="M74.7525 106.521C74.7525 108.849 74.1234 110.925 72.9909 112.813C70.8517 109.1 66.825 106.521 62.1692 106.521C57.5134 106.521 53.4867 109.1 51.3475 112.813C50.2779 110.925 49.5859 108.849 49.5859 106.521C49.5859 99.6 55.2484 93.9375 62.1692 93.9375C69.09 93.9375 74.7525 99.6 74.7525 106.521ZM153.398 103.375V122.25C153.398 125.71 150.567 128.542 147.107 128.542H140.815V134.833C140.815 141.817 135.215 147.417 128.232 147.417H40.1484C36.811 147.417 33.6104 146.091 31.2506 143.731C28.8908 141.371 27.565 138.171 27.565 134.833V128.542H21.2734C17.8129 128.542 14.9817 125.71 14.9817 122.25V103.375C14.9817 99.9146 17.8129 97.0833 21.2734 97.0833H27.565C27.565 72.7346 47.2579 53.0417 71.6067 53.0417H77.8984V45.0513C74.1234 42.9121 71.6067 38.8225 71.6067 34.1667C71.6067 27.2458 77.2692 21.5833 84.19 21.5833C91.1109 21.5833 96.7734 27.2458 96.7734 34.1667C96.7734 38.8225 94.2567 42.9121 90.4817 45.0513V53.0417H96.7734C121.122 53.0417 140.815 72.7346 140.815 97.0833H147.107C150.567 97.0833 153.398 99.9146 153.398 103.375ZM140.815 109.667H128.232V97.0833C128.232 79.7183 114.138 65.625 96.7734 65.625H71.6067C54.2417 65.625 40.1484 79.7183 40.1484 97.0833V109.667H27.565V115.958H40.1484V134.833H128.232V115.958H140.815V109.667ZM106.211 93.9375C99.29 93.9375 93.6275 99.6 93.6275 106.521C93.6275 108.849 94.3196 110.925 95.3892 112.813C97.5284 109.1 101.555 106.521 106.211 106.521C110.867 106.521 114.893 109.1 117.033 112.813C118.165 110.925 118.794 108.849 118.794 106.521C118.794 103.184 117.468 99.9829 115.109 97.6231C112.749 95.2633 109.548 93.9375 106.211 93.9375V93.9375Z" fill="#909096" fill-opacity="0.25"/>
</g>
<defs>
<filter id="filter0_d_3_97" x="-2.38989" y="0" width="175" height="175" filterUnits="userSpaceOnUse" color-interpolation-filters="sRGB">
<feFlood flood-opacity="0" result="BackgroundImageFix"/>
<feColorMatrix in="SourceAlpha" type="matrix" values="0 0 0 0 0 0 0 0 0 0 0 0 0 0 0 0 0 0 127 0" result="hardAlpha"/>
<feOffset dy="3"/>
<feGaussianBlur stdDeviation="1.5"/>
<feComposite in2="hardAlpha" operator="out"/>
<feColorMatrix type="matrix" values="0 0 0 0 0 0 0 0 0 0 0 0 0 0 0 0 0 0 0.25 0"/>
<feBlend mode="normal" in2="BackgroundImageFix" result="effect1_dropShadow_3_97"/>
<feBlend mode="normal" in="SourceGraphic" in2="effect1_dropShadow_3_97" result="shape"/>
</filter>
</defs>
</svg>
